<?xml version="1.0" encoding="utf-8"?>
<!-- Generator: Adobe Illustrator 25.2.3, SVG Export Plug-In . SVG Version: 6.00 Build 0)  -->
<!DOCTYPE svg PUBLIC "-//W3C//DTD SVG 1.1//EN" "http://www.w3.org/Graphics/SVG/1.1/DTD/svg11.dtd" [
	<!ENTITY ns_extend "http://ns.adobe.com/Extensibility/1.0/">
	<!ENTITY ns_ai "http://ns.adobe.com/AdobeIllustrator/10.0/">
	<!ENTITY ns_graphs "http://ns.adobe.com/Graphs/1.0/">
	<!ENTITY ns_vars "http://ns.adobe.com/Variables/1.0/">
	<!ENTITY ns_imrep "http://ns.adobe.com/ImageReplacement/1.0/">
	<!ENTITY ns_sfw "http://ns.adobe.com/SaveForWeb/1.0/">
	<!ENTITY ns_custom "http://ns.adobe.com/GenericCustomNamespace/1.0/">
	<!ENTITY ns_adobe_xpath "http://ns.adobe.com/XPath/1.0/">
]>
<svg version="1.1" xmlns:x="&ns_extend;" xmlns:i="&ns_ai;" xmlns:graph="&ns_graphs;"
	 xmlns="http://www.w3.org/2000/svg" xmlns:xlink="http://www.w3.org/1999/xlink" x="0px" y="0px"
	 viewBox="0 0 209.9887695 82.5599365" style="enable-background:new 0 0 209.9887695 82.5599365;" xml:space="preserve">
<style type="text/css">
	.st0{fill:#384999;}
</style>
<metadata>
	<sfw  xmlns="&ns_sfw;">
		<slices></slices>
		<sliceSourceBounds  bottomLeftOrigin="true" height="277.1558228" width="434.8417053" x="245.9967957" y="-404.833374">
			</sliceSourceBounds>
	</sfw>
</metadata>
<g id="Livello_1">
</g>
<g id="Livello_2">
	<polygon class="st0" points="-215.7004089,-40.932457 -206.9783783,-12.1118431 -191.0511932,-9.0780935 -178.1577606,-17.8001213 
		-184.6044769,-48.8960457 -178.1577606,-48.8960457 -157.3007355,-26.9013691 -154.2669983,-5.2859077 -172.8487091,19.3633022 
		-175.1240082,40.5995445 -171.7110443,145.5901337 -165.264328,156.9666901 -154.2669983,166.0679321 -150.0955811,177.4444885 
		-152.7501221,199.4391785 -162.6098022,215.745575 -171.7110443,187.304184 -186.1213531,186.1665192 -201.2901001,198.3015137 
		-196.36026,228.2597809 -227.8354034,199.8183899 -227.8354034,177.0652771 -206.9783783,156.4054413 -208.1160278,27.70611 
		-227.8354034,3.43612 -227.8354034,-14.3871546 	"/>
	<g>
		<path class="st0" d="M58.9103889,78.4521561c-3.778923-0.4386826-6.9434776-0.6154556-14.5013275-0.6154556h-27.681221
			c-6.6783285,0-9.1401272,0.0883865-12.9190521,0.2640762c0.5281441-3.5148544,0.704911-6.766716,0.704911-12.8306732V17.2887497
			c0-5.4474287-0.1767669-8.5235987-0.704911-12.8295908c3.6043146,0.1756887,6.0639572,0.2629943,12.9190521,0.2629943H44.760437
			c5.9755745,0,8.9633598-0.1756887,13.0936623-0.6143718v16.432827c-4.0419159-0.4397602-7.2043152-0.6154499-13.0936623-0.6154499
			H21.9122753v12.9179764h18.9830112c5.7988052,0,7.9070702-0.087307,13.1798897-0.6143723v16.2571373
			c-4.1303024-0.4397621-7.1180916-0.615448-13.1798897-0.615448H21.9122753v14.7643204h22.6735516
			c6.6783295,0,10.545639-0.1756859,14.3245621-0.615448V78.4521561z"/>
		<path class="st0" d="M92.9293365,67.0280685c-2.3734131,3.6905441-4.2186813,6.766716-6.415329,10.8086319H63.2260818
			c4.7446747-5.799881,6.5037155-8.0838394,9.0517426-11.5997696L91.610054,39.0827789L75.1772308,15.9705458
			c-2.7247925-3.953536-5.3612061-7.3810844-8.6119843-11.2483921h22.7597809
			c1.4076614,3.2518592,3.3391647,6.7667117,6.5037155,11.6008492l6.6783295,10.1931801l6.5921021-10.2815647
			c3.5137711-5.5358124,5.0076675-8.1722221,6.4131775-11.5124645h22.5851669
			c-3.1623993,3.9546142-5.2728119,6.6794066-8.3489838,11.0727043l-16.5190582,23.2006187l19.4206085,27.2414551
			c2.8110199,3.9546204,5.2728271,7.1180954,8.9633636,11.5997696H118.325531
			c-1.6706619-3.163475-3.3391647-6.1512604-6.3269577-10.8086319l-9.5798874-14.8516273L92.9293365,67.0280685z"/>
		<path class="st0" d="M147.862793,77.8367004c0.5281525-3.8662262,0.7049103-7.8208389,0.7049103-13.0052795V17.2887497
			c0-4.7446737-0.1767578-8.6992884-0.7049103-12.8295908c4.1303101,0.1756887,7.2948608,0.2629943,12.9190521,0.2629943h19.2460022
			c17.3985748,0,26.9784698,8.3489895,26.9784698,23.6393013c0,15.642765-10.0196533,24.9575043-27.0668488,24.9575043h-13.8847961
			v11.248394c0,5.1855087,0.2629852,9.4915009,0.7027435,13.2693481H147.862793z M179.1483307,38.380024
			c6.1523438,0,9.7545013-3.4275475,9.7545013-9.4904251c0-6.0639572-3.4275513-9.2274342-9.7545013-9.2274342h-13.0936584
			V38.380024H179.1483307z"/>
	</g>
</g>
</svg>
