{
    "asset" : {
        "generator" : "Khronos glTF Blender I/O v1.6.16",
        "version" : "2.0"
    },
    "scene" : 0,
    "scenes" : [
        {
            "name" : "Scene",
            "nodes" : [
                0
            ]
        }
    ],
    "nodes" : [
        {
            "mesh" : 0,
            "name" : "Curve.003",
            "rotation" : [
                0.7071068286895752,
                0,
                0,
                0.7071068286895752
            ],
            "scale" : [
                63.13459777832031,
                63.13459777832031,
                63.13459777832031
            ],
            "translation" : [
                0.018677055835723877,
                0.013442754745483398,
                -0.22627544403076172
            ]
        }
    ],
    "materials" : [
        {
            "doubleSided" : true,
            "name" : "Material.001",
            "pbrMetallicRoughness" : {
                "baseColorFactor" : [
                    0.800000011920929,
                    0.800000011920929,
                    0.800000011920929,
                    1
                ],
                "metallicFactor" : 0,
                "roughnessFactor" : 0.5
            }
        }
    ],
    "meshes" : [
        {
            "name" : "Curve.003",
            "primitives" : [
                {
                    "attributes" : {
                        "POSITION" : 0,
                        "NORMAL" : 1,
                        "TEXCOORD_0" : 2
                    },
                    "indices" : 3,
                    "material" : 0
                }
            ]
        }
    ],
    "accessors" : [
        {
            "bufferView" : 0,
            "componentType" : 5126,
            "count" : 3576,
            "max" : [
                0.03162985295057297,
                0.004999999888241291,
                0.010868949815630913
            ],
            "min" : [
                -0.02571817860007286,
                -0.004999999888241291,
                -0.01010868139564991
            ],
            "type" : "VEC3"
        },
        {
            "bufferView" : 1,
            "componentType" : 5126,
            "count" : 3576,
            "type" : "VEC3"
        },
        {
            "bufferView" : 2,
            "componentType" : 5126,
            "count" : 3576,
            "type" : "VEC2"
        },
        {
            "bufferView" : 3,
            "componentType" : 5123,
            "count" : 7140,
            "type" : "SCALAR"
        }
    ],
    "bufferViews" : [
        {
            "buffer" : 0,
            "byteLength" : 42912,
            "byteOffset" : 0
        },
        {
            "buffer" : 0,
            "byteLength" : 42912,
            "byteOffset" : 42912
        },
        {
            "buffer" : 0,
            "byteLength" : 28608,
            "byteOffset" : 85824
        },
        {
            "buffer" : 0,
            "byteLength" : 14280,
            "byteOffset" : 114432
        }
    ],
    "buffers" : [
        {
            "byteLength" : 128712,
            "uri" : "data:application/octet-stream;base64,"
        }
    ]
}
